<?xml version="1.0" encoding="UTF-8" standalone="no"?>
<!-- Created with Inkscape (http://www.inkscape.org/) -->

<svg
   xmlns:dc="http://purl.org/dc/elements/1.1/"
   xmlns:cc="http://creativecommons.org/ns#"
   xmlns:rdf="http://www.w3.org/1999/02/22-rdf-syntax-ns#"
   xmlns:svg="http://www.w3.org/2000/svg"
   xmlns="http://www.w3.org/2000/svg"
   xmlns:sodipodi="http://sodipodi.sourceforge.net/DTD/sodipodi-0.dtd"
   xmlns:inkscape="http://www.inkscape.org/namespaces/inkscape"
   id="svg2"
   version="1.1"
   inkscape:version="0.48.4 r9939"
   width="1021"
   height="1024"
   sodipodi:docname="sniper.svg">
  <metadata
     id="metadata8">
    <rdf:RDF>
      <cc:Work
         rdf:about="">
        <dc:format>image/svg+xml</dc:format>
        <dc:type
           rdf:resource="http://purl.org/dc/dcmitype/StillImage" />
        <dc:title />
      </cc:Work>
    </rdf:RDF>
  </metadata>
  <defs
     id="defs6" />
  <sodipodi:namedview
     pagecolor="#ffffff"
     bordercolor="#666666"
     borderopacity="1"
     objecttolerance="10"
     gridtolerance="10"
     guidetolerance="10"
     inkscape:pageopacity="0"
     inkscape:pageshadow="2"
     inkscape:window-width="1692"
     inkscape:window-height="928"
     id="namedview4"
     showgrid="false"
     fit-margin-top="0"
     fit-margin-left="0"
     fit-margin-right="0"
     fit-margin-bottom="0"
     inkscape:zoom="1.3037281"
     inkscape:cx="402.85438"
     inkscape:cy="731.88052"
     inkscape:window-x="0"
     inkscape:window-y="0"
     inkscape:window-maximized="0"
     inkscape:current-layer="svg2" />
  <path
     style="fill:#000000"
     d="m 492,982.5938 0,-41.4061 -4.75,-0.6476 c -2.6125,-0.3562 -11.5,-1.2716 -19.75,-2.0342 -15.52716,-1.4352 -29.54925,-3.4274 -42.5,-6.038 -4.125,-0.8315 -9.64738,-1.9264 -12.27194,-2.4331 -2.62457,-0.5067 -6.22457,-1.3676 -8,-1.9132 -1.77544,-0.5456 -6.15306,-1.7529 -9.72806,-2.6829 -3.575,-0.93 -8.3,-2.253 -10.5,-2.9401 -2.2,-0.687 -6.475,-2.0185 -9.5,-2.9588 -3.025,-0.9403 -6.4,-2.0738 -7.5,-2.5189 -1.1,-0.4452 -4.25,-1.589 -7,-2.5419 -2.75,-0.9528 -6.35,-2.2893 -8,-2.9699 -1.65,-0.6806 -5.025,-2.0409 -7.5,-3.023 -11.1932,-4.4412 -37.61031,-17.2084 -47.5,-22.9563 -3.3,-1.918 -6.675,-3.8039 -7.5,-4.191 -0.825,-0.387 -5.18877,-3.0966 -9.69727,-6.0213 -4.5085,-2.9246 -8.46499,-5.3175 -8.79221,-5.3175 -0.32721,0 -1.13844,-0.45428 -1.80273,-1.00949 -0.66428,-0.55521 -4.35779,-3.23311 -8.20779,-5.95089 -3.85,-2.71777 -7.45,-5.31954 -8,-5.7817 -0.55,-0.46217 -3.69645,-2.84677 -6.99211,-5.29911 -26.66436,-19.84132 -60.82144,-54.09544 -81.81985,-82.05227 -5.28861,-7.04114 -15.48427,-21.35641 -17.41082,-24.44575 -3.6808,-5.90238 -11.3485,-18.42727 -13.13823,-21.4608 -2.35177,-3.98616 -19.77065,-38.94534 -21.67446,-43.5 -0.68968,-1.65 -1.72724,-4.125 -2.30567,-5.5 -0.57844,-1.375 -2.02226,-4.975 -3.20849,-8 -1.18623,-3.025 -2.53021,-6.4 -2.98662,-7.5 -0.45641,-1.1 -2.2568,-6.5 -4.00087,-12 -1.74407,-5.5 -3.7992,-11.47777 -4.56696,-13.28393 C 94.62817,632.4099 94,630.01782 94,628.90032 c 0,-1.1175 -0.46239,-2.8958 -1.02753,-3.95178 -0.56514,-1.05598 -1.4254,-3.83889 -1.91168,-6.18425 -0.48628,-2.34537 -1.61149,-7.4143 -2.50046,-11.2643 -1.82084,-7.88578 -4.54398,-21.47534 -5.21001,-26 -0.24287,-1.65 -1.07732,-7.275 -1.85431,-12.5 -0.777,-5.225 -1.91282,-15.34168 -2.52405,-22.4815 -0.61123,-7.13983 -1.59347,-13.56245 -2.18275,-14.27249 -0.84088,-1.0132 -8.94882,-1.28115 -37.68032,-1.24526 C 18.974,531.02584 1.9375,531.03604 1.25,531.02324 0.29468,531.00544 0,526.52094 0,512 c 0,-14.52094 0.29468,-19.00548 1.25,-19.02324 0.6875,-0.0128 17.724,-0.003 37.85889,0.0225 28.47822,0.0356 36.83422,-0.23688 37.62346,-1.22676 0.55801,-0.69987 1.54591,-8.02249 2.19533,-16.27249 0.64942,-8.25 1.60571,-17.475 2.1251,-20.5 0.51938,-3.025 1.39053,-8.65 1.93587,-12.5 1.34068,-9.46478 5.38439,-29.77531 6.96351,-34.97589 0.50504,-1.66326 1.67363,-5.94911 2.59686,-9.52411 3.98489,-15.43047 12.11056,-39.38914 17.636,-52 0.60246,-1.375 1.66374,-3.85 2.35841,-5.5 2.53601,-6.02362 16.50374,-34.1642 19.85422,-40 1.89461,-3.3 4.39014,-7.72041 5.54562,-9.82314 3.24307,-5.90168 21.43733,-33.18763 23.12252,-34.67686 0.31119,-0.275 2.78619,-3.44482 5.5,-7.04403 11.8402,-15.70317 20.10438,-24.99087 37.94497,-42.64447 10.45591,-10.34632 20.14629,-19.7115 21.53416,-20.8115 1.38788,-1.1 4.98304,-4.06582 7.98925,-6.59071 12.71325,-10.67775 38.84541,-29.05713 53.58023,-37.68429 16.53357,-9.6803 51.53095,-27.225 54.30723,-27.225 0.50396,0 2.41526,-0.75114 4.24733,-1.6692 5.92012,-2.9666 6.78573,-3.3308 7.91634,-3.3308 0.61184,0 2.53045,-0.63736 4.26357,-1.41635 1.73312,-0.77899 7.65113,-2.85083 13.15113,-4.60408 5.5,-1.75325 11.47777,-3.81589 13.28393,-4.58365 C 386.59009,97.62817 388.98217,97 390.09967,97 c 1.1175,0 2.8958,-0.46239 3.95178,-1.02753 1.05598,-0.56514 3.83889,-1.4254 6.18425,-1.91168 2.34537,-0.48628 7.4143,-1.61248 11.2643,-2.50267 10.62354,-2.45633 21.23276,-4.48009 29,-5.53186 3.85,-0.52134 9.475,-1.39153 12.5,-1.93376 3.025,-0.54223 12.25,-1.49798 20.5,-2.12389 8.25,-0.62591 15.7875,-1.35523 16.75,-1.6207 1.62939,-0.44942 1.75,-3.23478 1.75,-40.4153 L 492,0 l 19.5,0 19.5,0 0.0153,39.25 c 0.008,21.5875 0.34592,39.76886 0.75,40.40303 0.41501,0.65131 5.95619,1.63865 12.73469,2.26909 24.74989,2.30188 41.51375,4.90791 62,9.63821 3.85,0.88897 8.91893,2.01418 11.2643,2.50046 2.34536,0.48628 5.12827,1.34654 6.18427,1.91168 1.056,0.56514 2.8343,1.02753 3.9518,1.02753 1.1175,0 3.5096,0.62817 5.3157,1.39592 1.8062,0.76776 7.7839,2.8304 13.2839,4.58365 5.5,1.75325 11.4181,3.82509 13.1512,4.60408 1.7331,0.77899 3.6517,1.41635 4.2635,1.41635 1.1307,0 1.9963,0.3642 7.9164,3.3308 1.8321,0.91806 3.7434,1.6692 4.2473,1.6692 2.7763,0 37.7737,17.5447 54.3072,27.225 14.7349,8.62716 40.867,27.00654 53.5803,37.68429 3.0062,2.52489 6.6013,5.49071 7.9892,6.59071 1.3879,1.1 11.0783,10.46518 21.5342,20.8115 17.8406,17.6536 26.1048,26.9413 37.945,42.64447 2.7138,3.59921 5.1888,6.76903 5.5,7.04403 1.6851,1.48923 19.8794,28.77518 23.1225,34.67686 1.1555,2.10273 3.651,6.52314 5.5456,9.82314 3.3505,5.8358 17.3182,33.97638 19.8542,40 0.6947,1.65 1.756,4.125 2.3584,5.5 5.5255,12.61086 13.6511,36.56953 17.636,52 0.9233,3.575 2.0918,7.86085 2.5969,9.52411 1.5791,5.20058 5.6228,25.51111 6.9635,34.97589 0.5453,3.85 1.4165,9.475 1.9359,12.5 0.5194,3.025 1.4757,12.25 2.1251,20.5 0.6494,8.25 1.6289,15.5625 2.1766,16.25 0.7665,0.96198 10.0693,1.25 40.3735,1.25 l 39.37754,0 0,19 0,19 -39.37754,0 c -30.5883,0 -39.6125,0.28313 -40.4303,1.2685 -0.579,0.69767 -1.5529,7.11017 -2.1641,14.25 -0.6112,7.13982 -1.7471,17.2565 -2.5241,22.4815 -0.777,5.225 -1.6114,10.85 -1.8543,12.5 -0.666,4.52466 -3.3891,18.11422 -5.21,26 -0.889,3.85 -2.0142,8.91893 -2.5004,11.2643 -0.4863,2.34536 -1.3466,5.12827 -1.9117,6.18425 -0.5652,1.05598 -1.0276,2.83428 -1.0276,3.95178 0,1.1175 -0.6281,3.50958 -1.3959,5.31574 -0.7677,1.80616 -2.8229,7.78393 -4.5669,13.28393 -1.7441,5.5 -3.5445,10.9 -4.0009,12 -0.4564,1.1 -1.8004,4.475 -2.9866,7.5 -1.1863,3.025 -2.6301,6.625 -3.2085,8 -0.5784,1.375 -1.616,3.85 -2.3057,5.5 -1.9038,4.55466 -19.3227,39.51384 -21.6744,43.5 -1.7898,3.03353 -9.4575,15.55842 -13.1383,21.4608 -1.9265,3.08934 -12.1222,17.40461 -17.4108,24.44575 -20.9984,27.95683 -55.1555,62.21095 -81.8198,82.05227 -3.2957,2.45234 -6.4422,4.83694 -6.9922,5.29911 -0.55,0.46216 -4.15,3.06393 -8,5.7817 -3.85,2.71778 -7.5435,5.39568 -8.2077,5.95089 -0.6643,0.55521 -1.4756,1.00949 -1.8028,1.00949 -0.3272,0 -4.2837,2.3929 -8.7922,5.3175 -4.5085,2.9247 -8.8723,5.6343 -9.6973,6.0213 -0.825,0.3871 -4.2,2.273 -7.5,4.191 -9.8896,5.7479 -36.3068,18.5151 -47.5,22.9563 -2.475,0.9821 -5.85,2.3424 -7.5,3.023 -1.65,0.6806 -5.25,2.0171 -8,2.9699 -2.75,0.9529 -5.9,2.0967 -7,2.5419 -1.1,0.4451 -4.475,1.5786 -7.5,2.5189 -3.025,0.9403 -7.3,2.2718 -9.5,2.9588 -2.2,0.6871 -6.925,2.0101 -10.49996,2.9401 -3.575,0.93 -7.95262,2.1373 -9.72806,2.6829 -1.77543,0.5456 -5.37543,1.4065 -8,1.9132 -2.62456,0.5067 -8.14694,1.6029 -12.27194,2.436 -13.08851,2.6434 -26.01569,4.4676 -42.94465,6.0603 -9.04455,0.8509 -17.03205,2.0346 -17.75,2.6304 -1.03484,0.8589 -1.30535,9.5544 -1.30535,41.9609 l 0,40.87759 -19.5,0 -19.5,0 0,-41.40619 z M 492.22178,905.25 492.5,891.5 l 19.25,-0.2716 19.25,-0.2716 0,12.4398 c 0,6.8419 0.27314,13.1516 0.60699,14.0216 0.72097,1.8788 4.99819,2.0364 14.30172,0.5268 3.5248,-0.5719 10.2748,-1.4401 15,-1.9293 8.84644,-0.916 19.97741,-2.7977 33.09129,-5.5942 12.26596,-2.6157 14.13504,-3.0652 22.5,-5.4118 4.4,-1.2343 9.34996,-2.6019 10.99996,-3.0391 2.9565,-0.7834 6.6268,-2.0171 13.5,-4.5378 1.925,-0.706 6.875,-2.5003 11,-3.9874 7.6138,-2.7448 12.0939,-4.5196 17.5,-6.9327 1.65,-0.7364 5.7,-2.5443 9,-4.0175 6.3997,-2.8568 16.822,-8.0735 25,-12.5133 11.9061,-6.46374 15.3238,-8.45968 20.7387,-12.11163 3.1563,-2.12866 5.9517,-3.87028 6.212,-3.87028 1.1291,0 26.684,-18.40353 32.5852,-23.46645 1.9447,-1.66845 5.5396,-4.60855 7.9887,-6.53355 12.2853,-9.65616 40.3193,-37.69014 49.9754,-49.9754 1.925,-2.44912 4.8651,-6.04407 6.5336,-7.98877 5.0629,-5.9012 23.4664,-31.45604 23.4664,-32.58514 0,-0.26032 1.7417,-3.05572 3.8703,-6.212 3.652,-5.41497 5.6479,-8.83263 12.1116,-20.73869 4.4398,-8.17805 9.6565,-18.6003 12.5134,-25 1.4731,-3.3 3.281,-7.35 4.0175,-9 2.413,-5.40612 4.1879,-9.88626 6.9327,-17.5 1.4871,-4.125 3.2814,-9.075 3.9874,-11 2.5206,-6.87321 3.7543,-10.54357 4.5377,-13.5 0.4372,-1.65 1.8048,-6.6 3.0391,-11 2.3466,-8.36496 2.7962,-10.23404 5.4119,-22.5 2.7965,-13.11388 4.6782,-24.24485 5.5941,-33.09129 0.4893,-4.7252 1.3575,-11.4752 1.9294,-15 1.6315,-10.05546 1.383,-16.56883 -0.6621,-17.35362 -0.9444,-0.36239 -6.4569,-0.57751 -12.25,-0.47805 l -10.533,0.18085 0,-19.25789 0,-19.25789 10.533,0.18085 c 5.7931,0.0995 11.3056,-0.11566 12.25,-0.47805 2.0451,-0.78479 2.2936,-7.29816 0.6621,-17.35362 -0.5719,-3.5248 -1.4401,-10.2748 -1.9294,-15 -0.9159,-8.84644 -2.7976,-19.97741 -5.5941,-33.09129 -2.6157,-12.26596 -3.0653,-14.13504 -5.4119,-22.5 -1.2343,-4.4 -2.6019,-9.35 -3.0391,-11 -0.7834,-2.95643 -2.0171,-6.62679 -4.5377,-13.5 -0.706,-1.925 -2.5003,-6.875 -3.9874,-11 -2.7448,-7.61374 -4.5197,-12.09388 -6.9327,-17.5 -0.7365,-1.65 -2.5444,-5.7 -4.0175,-9 -2.8569,-6.3997 -8.0736,-16.82195 -12.5134,-25 -6.4637,-11.90606 -8.4596,-15.32372 -12.1116,-20.73869 -2.1286,-3.15628 -3.8703,-5.95168 -3.8703,-6.212 0,-1.1291 -18.4035,-26.68394 -23.4664,-32.58514 -1.6685,-1.9447 -4.6086,-5.53965 -6.5336,-7.98877 -9.6561,-12.28526 -37.6901,-40.31924 -49.9754,-49.9754 -2.4491,-1.925 -6.044,-4.8651 -7.9887,-6.53355 -5.9012,-5.06292 -31.4561,-23.46645 -32.5852,-23.46645 -0.2603,0 -3.0557,-1.74162 -6.212,-3.87028 -5.4149,-3.65195 -8.8326,-5.64789 -20.7387,-12.11159 -8.178,-4.43979 -18.6003,-9.65649 -25,-12.51337 -3.3,-1.47314 -7.35,-3.28102 -9,-4.01751 -5.4061,-2.41304 -9.8862,-4.18786 -17.5,-6.93268 -4.125,-1.48709 -9.075,-3.28141 -11,-3.98738 -6.8732,-2.52065 -10.5435,-3.75437 -13.5,-4.53776 -1.65,-0.43721 -6.59996,-1.80481 -10.99996,-3.03912 -8.36496,-2.34657 -10.23404,-2.79613 -22.5,-5.41183 -13.11388,-2.79651 -24.24485,-4.67823 -33.09129,-5.59417 -4.7252,-0.48923 -11.4752,-1.35744 -15,-1.92936 -9.30353,-1.50954 -13.58075,-1.35198 -14.30172,0.52684 C 531.27314,107.45176 531,113.76148 531,120.60337 l 0,12.43981 -19.25,-0.2716 -19.25,-0.27159 -0.27822,-13.75 -0.27822,-13.75 -6.72178,0.008 c -3.69698,0.004 -9.6057,0.47549 -13.13049,1.0474 -3.5248,0.57192 -10.2748,1.44013 -15,1.92936 -8.84644,0.91594 -19.97741,2.79766 -33.09129,5.59417 -12.26596,2.6157 -14.13504,3.06526 -22.5,5.41183 -4.4,1.23431 -9.35,2.60191 -11,3.03912 -2.95643,0.78339 -6.62679,2.01711 -13.5,4.53776 -1.925,0.70597 -6.875,2.50029 -11,3.98738 -7.61374,2.74482 -12.09388,4.51964 -17.5,6.93268 -1.65,0.73649 -5.7,2.54437 -9,4.01751 -6.3997,2.85688 -16.82195,8.07358 -25,12.51337 -11.90606,6.4637 -15.32372,8.45964 -20.73869,12.11159 -3.15628,2.12866 -5.95168,3.87028 -6.212,3.87028 -1.1291,0 -26.68394,18.40353 -32.58514,23.46645 -1.9447,1.66845 -5.53965,4.60855 -7.98877,6.53355 -12.28526,9.65616 -40.31924,37.69014 -49.9754,49.9754 -1.925,2.44912 -4.8651,6.04407 -6.53355,7.98877 C 185.40353,263.86536 167,289.4202 167,290.5493 c 0,0.26032 -1.74162,3.05572 -3.87028,6.212 -3.65195,5.41497 -5.64789,8.83263 -12.11159,20.73869 -4.43979,8.17805 -9.65649,18.6003 -12.51337,25 -1.47314,3.3 -3.28102,7.35 -4.01751,9 -2.41304,5.40612 -4.18786,9.88626 -6.93268,17.5 -1.48709,4.125 -3.28141,9.075 -3.98738,11 -2.52065,6.87321 -3.75437,10.54357 -4.53776,13.5 -0.43721,1.65 -1.80481,6.6 -3.03912,11 -2.34657,8.36496 -2.79613,10.23404 -5.41183,22.5 -2.79651,13.11388 -4.67823,24.24485 -5.59417,33.09129 -0.48923,4.7252 -1.35744,11.4752 -1.92936,15 -1.62852,10.03686 -1.38237,16.56909 0.65381,17.35045 0.93982,0.36064 7.12732,0.58096 13.75,0.48961 l 12.04124,-0.1661 0,19.23475 0,19.23475 -12.04124,-0.1661 c -6.62268,-0.0914 -12.81018,0.12897 -13.75,0.48961 -2.03618,0.78136 -2.28233,7.31359 -0.65381,17.35045 0.57192,3.5248 1.44013,10.2748 1.92936,15 0.91594,8.84644 2.79766,19.97741 5.59417,33.09129 2.6157,12.26596 3.06526,14.13504 5.41183,22.5 1.23431,4.4 2.60191,9.35 3.03912,11 0.78339,2.95643 2.01711,6.62679 4.53776,13.5 0.70597,1.925 2.50029,6.875 3.98738,11 2.74482,7.61374 4.51964,12.09388 6.93268,17.5 0.73649,1.65 2.54437,5.7 4.01751,9 2.85688,6.3997 8.07358,16.82195 12.51337,25 6.4637,11.90606 8.45964,15.32372 12.11159,20.73869 2.12866,3.15628 3.87028,5.95168 3.87028,6.212 0,1.1291 18.40353,26.68394 23.46645,32.58514 1.66845,1.9447 4.60855,5.53965 6.53355,7.98877 9.65616,12.28526 37.69014,40.31924 49.9754,49.9754 2.44912,1.925 6.04407,4.8651 7.98877,6.53355 5.9012,5.06292 31.45604,23.46645 32.58514,23.46645 0.26032,0 3.05572,1.74162 6.212,3.87028 5.41497,3.65195 8.83263,5.64789 20.73869,12.11163 8.17805,4.4398 18.6003,9.6565 25,12.5133 3.3,1.4732 7.35,3.2811 9,4.0175 5.40612,2.4131 9.88626,4.1879 17.5,6.9327 4.125,1.4871 9.075,3.2814 11,3.9874 6.87321,2.5207 10.54357,3.7544 13.5,4.5378 1.65,0.4372 6.6,1.8048 11,3.0391 8.4511,2.3707 10.25463,2.8027 23,5.5091 13.51347,2.8696 22.58912,4.401 32.5,5.4842 5.225,0.5711 11.75,1.4261 14.5,1.9 2.75,0.474 8.4748,0.9147 12.72178,0.9794 l 7.72178,0.1176 0.27822,-13.75 z m 4.43321,-43.07875 c -2.3044,-2.54633 -2.06424,-4.89442 0.59501,-5.81754 2.2841,-0.79289 18.59051,-0.75457 22.25,0.0523 1.1,0.24253 2.3375,0.4754 2.75,0.51748 0.4125,0.0421 0.75,1.65151 0.75,3.57651 l 0,3.5 -12.34501,0 c -10.68966,0 -12.56693,-0.24522 -14,-1.82874 z m 4.21343,-39.49913 c -4.74176,-0.91079 -7.49256,-2.85323 -6.44379,-4.55019 0.36371,-0.58848 2.92785,-1.74307 5.69809,-2.56574 4.43472,-1.31697 5.77437,-1.32185 11.20704,-0.0408 3.39363,0.80026 7.43904,1.46166 8.98979,1.46979 2.34223,0.0123 2.76546,0.39241 2.5,2.24548 -0.28867,2.01516 -1.15358,2.32974 -8.95113,3.25561 -5.03458,0.5978 -10.45202,0.67523 -13,0.18582 z M 500,782.83407 c -5.11885,-1.43431 -6.61238,-3.19463 -5.2491,-6.18671 0.99223,-2.17771 1.90756,-2.48928 8.92734,-3.0388 4.30197,-0.33676 10.29676,-0.27396 13.32176,0.13957 5.47584,0.74856 5.5,0.76724 5.5,4.25186 l 0,3.5 -6.5,0.70136 c -3.575,0.38576 -7.85,0.90658 -9.5,1.1574 -1.65,0.25082 -4.575,0.0147 -6.5,-0.52468 z m -1.25,-43.03677 c -8.63736,-2.29406 -1.11649,-8.58233 8.75,-7.31596 14.85207,1.90627 14.98917,1.94292 15.29596,4.0886 0.26589,1.85967 -0.49598,2.19049 -7.5,3.2566 -8.93419,1.35992 -11.33156,1.35568 -16.54596,-0.0292 z m 0.37074,-39.79981 c -3.77938,-0.89223 -5.49614,-2.84024 -4.04454,-4.58932 1.56081,-1.88066 9.5815,-3.70025 13.13523,-2.97989 1.80871,0.36664 4.86357,0.89216 6.78857,1.16782 6.95264,0.99562 8,1.42783 8,3.30138 0,2.9559 -15.80084,5.00716 -23.87926,3.10001 z m 5.89866,-40.74388 C 498.16973,658.87202 495,657.16096 495,653.845 c 0,-1.01475 0.3375,-1.86461 0.75,-1.88856 0.4125,-0.024 2.775,-0.43521 5.25,-0.9139 2.75864,-0.53355 7.88597,-0.45439 13.25,0.20457 l 8.75,1.07493 0,3.23199 c 0,4.67291 -0.10836,4.69521 -17.9806,3.69958 z m -5.73321,-41.54036 c -3.95645,-1.01618 -5.90442,-2.90392 -4.8152,-4.66633 1.06006,-1.7152 9.66498,-3.28705 14.27924,-2.60837 14.02474,2.06282 13.74977,1.9816 13.74977,4.06144 0,1.6148 -0.8667,2.11558 -4.5,2.6001 -11.31459,1.50885 -14.78392,1.62252 -18.71381,0.61316 z m -0.49742,-39.90678 c -4.04506,-1.07559 -5.51583,-3.57943 -3.8886,-6.61995 1.19592,-2.23459 10.53604,-3.24373 21.09983,-2.2797 l 6.5,0.59317 0,3.49154 0,3.49155 -8,1.18334 c -9.54054,1.41121 -10.88555,1.4232 -15.71123,0.14005 z M 499.94121,535.03 c -14.34811,-7.58611 -17.38714,-27.43023 -5.95204,-38.86533 13.53924,-13.53925 33.93592,-3.0382 33.99577,17.50241 0.0467,16.02145 -15.60116,27.94153 -28.04373,21.36292 z M 200.75,525.91989 c -0.96738,-0.56345 -1.75,-2.19996 -1.75,-3.65939 0,-1.45207 -0.53563,-5.23338 -1.19029,-8.40292 -1.4721,-7.12721 0.45247,-15.16284 3.74727,-15.64592 1.79461,-0.26312 2.11567,0.82595 3.67237,12.45707 1.57399,11.76031 1.58043,12.88397 0.0832,14.53833 -1.85957,2.0548 -2.17418,2.10396 -4.5626,0.71283 z m 205.05828,-0.1699 c -1.45771,-1.15766 -1.89403,-2.97073 -3.47787,-14.45177 -0.83721,-6.06884 1.47378,-13.29823 4.25099,-13.29823 1.91632,0 2.21476,0.719 2.80176,6.75 0.36134,3.7125 0.93398,9.55535 1.27254,12.98411 0.42832,4.33774 0.23287,6.69523 -0.64251,7.75 -1.52796,1.84107 -2.17032,1.88169 -4.20491,0.26589 z m 204.59161,0.48469 c -1.06548,-0.71157 -1.89067,-4.59056 -3.08291,-14.49195 -0.32251,-2.67834 -0.0169,-6.74273 0.69924,-9.30067 1.04659,-3.73806 1.64534,-4.4901 3.37793,-4.24273 2.24155,0.32003 2.00855,-0.73216 4.1029,18.52774 0.94841,8.7216 -0.95575,12.27338 -5.09716,9.50761 z m 205.01067,0 c -1.2647,-0.85294 -3.5136,-11.61664 -3.5904,-17.18494 -0.029,-2.09833 0.493,-5.46855 1.1599,-7.48938 0.9598,-2.90822 1.6616,-3.61023 3.3663,-3.3673 1.8774,0.26756 2.2311,1.14076 2.7578,6.80693 0.3322,3.575 0.9578,9.30286 1.3902,12.72858 0.9695,7.68155 -1.1207,11.17878 -5.0838,8.50611 z M 159.5744,523.74999 c -0.25504,-1.2375 -0.71245,-4.725 -1.01647,-7.75 -0.30403,-3.025 -0.83242,-7.98802 -1.1742,-11.02892 -0.68578,-6.10161 0.82623,-8.67399 4.42677,-7.53122 1.54394,0.49002 2.0298,1.93196 2.55497,7.58261 0.35667,3.83764 0.35573,10.12753 -0.002,13.97753 -0.54748,5.89072 -0.94174,7 -2.48793,7 -1.10134,0 -2.0231,-0.90131 -2.30105,-2.25 z m 80.00412,1 c -0.19729,-0.6875 -0.87239,-4.30406 -1.50022,-8.03681 -1.26747,-7.53573 0.2414,-18.5149 2.67273,-19.44789 0.71629,-0.27487 2.4322,0.71938 3.81315,2.20945 2.3232,2.50678 2.52489,3.50554 2.69937,13.36723 0.10371,5.86191 -0.16472,11.22052 -0.59651,11.90802 -0.43179,0.6875 -2.12264,1.25 -3.75744,1.25 -1.6348,0 -3.13379,-0.5625 -3.33108,-1.25 z M 282,523.08978 c 0,-1.67713 -0.7209,-4.85103 -1.602,-7.05311 -1.75051,-4.37495 -1.49045,-10.071 0.74357,-16.28668 1.57473,-4.38134 2.25758,-4.59665 4.36718,-1.377 1.23906,1.89105 1.49761,4.88677 1.27305,14.75 -0.27267,11.97593 -0.35471,12.38735 -2.5318,12.69655 -1.91128,0.27145 -2.25,-0.1395 -2.25,-2.72976 z m 39.16212,-2.79939 c -2.23588,-10.0925 -2.47402,-15.10521 -0.88231,-18.57256 0.81244,-1.76981 1.64435,-3.74889 1.84868,-4.39795 0.26843,-0.85269 0.9259,-0.77176 2.36966,0.29169 1.8222,1.34221 1.9983,2.63481 2,14.68011 0.002,12.50668 -0.10585,13.22374 -2.02569,13.49871 -1.72022,0.24638 -2.22198,-0.58726 -3.31034,-5.5 z m 43.37832,4.4596 c -0.21824,-0.6875 -0.65148,-3.95 -0.96276,-7.25 -0.31128,-3.3 -0.84722,-8.7129 -1.19097,-12.02867 -0.69501,-6.70403 0.73333,-9.20278 4.5653,-7.98656 1.93489,0.61411 2.04799,1.41944 2.04799,14.58262 0,13.3377 -0.0867,13.93261 -2.03138,13.93261 -1.11727,0 -2.20995,-0.5625 -2.42818,-1.25 z m 80.03174,0.0639 c -2.0923,-6.63907 -2.69958,-15.26502 -1.49967,-21.30175 1.43668,-7.22788 2.5468,-7.91385 6.28423,-3.88319 2.04057,2.20066 2.50053,3.87044 2.8235,10.25 0.2122,4.19159 0.14595,9.42107 -0.14721,11.62107 -0.48678,3.65295 -0.8156,4.02723 -3.78991,4.31387 -2.04229,0.19682 -3.41129,-0.17611 -3.67094,-1 z m 123.32964,-1.09529 c -4.00627,-5.56147 -3.83259,-23.61489 0.2482,-25.79887 3.58598,-1.91916 5.2599,0.3301 6.51713,8.7571 1.52574,10.22671 0.0531,19.34037 -3.11723,19.29177 -1.12745,-0.0173 -2.7691,-1.02979 -3.6481,-2.25 z m 80.10224,-5.69238 c -0.9841,-6.32633 -0.986,-9.32219 -0.01,-14.5 1.3422,-7.11327 2.4055,-7.85763 5.9044,-4.13323 1.8947,2.0168 2.337,3.88363 2.8139,11.87601 0.7596,12.73289 0.2021,14.73099 -4.1102,14.73099 l -3.3587,0 -1.2404,-7.9738 z m 43.533,6.7238 c -0.5143,-1.60617 -1.4918,-7.90461 -2.1976,-14.15988 -0.5225,-4.63035 0.9344,-11.85441 2.8307,-14.03637 0.4931,-0.56742 1.4117,-0.16706 2.2943,1 1.1197,1.48045 1.4795,5.11736 1.5037,15.19625 0.03,12.66201 -0.058,13.25 -1.9995,13.25 -1.1173,0 -2.2115,-0.5625 -2.4316,-1.25 z m 40,0 c -1.7553,-5.48226 -2.835,-19.58808 -1.7269,-22.56093 0.5513,-1.47899 1.2789,-3.53782 1.617,-4.57519 0.5915,-1.81539 0.6888,-1.81895 2.5937,-0.095 1.7838,1.61432 1.9791,3.10792 1.9791,15.13608 0,12.74707 -0.091,13.34501 -2.0313,13.34501 -1.1173,0 -2.2115,-0.5625 -2.4316,-1.25 z m 41.1578,-0.53472 c -0.9322,-1.03005 -1.6949,-3.27056 -1.6949,-4.97895 0,-1.70839 -0.4813,-4.37225 -1.0697,-5.9197 -0.786,-2.06756 -0.7263,-4.36111 0.2253,-8.65044 1.4107,-6.35888 3.5119,-8.44975 6.75,-6.71678 1.5789,0.84504 2.0192,2.60762 2.5688,10.28518 0.8084,11.29204 -0.2146,17.1426 -3.0703,17.5594 -1.1079,0.16171 -2.7771,-0.54872 -3.7092,-1.57874 z m 80.9227,0.0347 c -2.4074,-8.14505 -1.1601,-27.25 1.779,-27.25 0.6902,0 2.1868,1.0125 3.3258,2.25 2.3705,2.57533 3.9773,15.64947 2.7883,22.68715 -0.6427,3.80384 -0.8997,4.06284 -4.0312,4.06284 -2.3217,0 -3.5029,-0.53524 -3.8619,-1.75 z M 497.25,453.34302 c -1.2375,-0.87284 -2.25,-2.62471 -2.25,-3.89305 0,-2.05025 0.62119,-2.38368 5.59964,-3.0057 3.0798,-0.38479 9.2673,-0.30467 13.75,0.17805 l 8.15036,0.87767 0,3.5 0,3.5 -11.5,0.215 c -9.14483,0.17097 -11.96079,-0.11 -13.75,-1.37197 z M 500,413.15339 c -12.62878,-3.95949 -2.52686,-8.83089 13.93231,-6.7185 6.20321,0.79612 8.63914,1.53797 9.46094,2.88129 0.90053,1.47203 0.66687,2.17009 -1.25403,3.74646 -3.05643,2.50822 -14.28194,2.55424 -22.13922,0.0907 z M 494.48477,369.952 c -1.27984,-4.03242 1.23741,-5.28139 8.99225,-4.46161 3.86264,0.40833 9.72298,1.02753 13.02298,1.37601 5.23162,0.55245 6.04092,0.92173 6.31955,2.88359 0.31833,2.24142 0.26617,2.25 -13.68261,2.25 -13.23327,0 -14.03786,-0.11246 -14.65217,-2.04799 z M 498,330.17221 c -1.73901,-0.53032 -2.5,-1.47606 -2.5,-3.10693 0,-1.91106 0.83199,-2.59536 4.5,-3.70117 3.85,-1.16068 5.4674,-1.14051 11.19741,0.13962 3.68357,0.82294 7.84607,1.49626 9.25,1.49626 1.86005,0 2.55259,0.5266 2.55259,1.94098 0,1.06754 -0.37635,2.17358 -0.83632,2.45786 -1.48455,0.9175 -21.58183,1.56073 -24.16368,0.77338 z m 0.82318,-39.81876 c -3.04525,-0.53717 -5.305,-2.76485 -4.35837,-4.29652 0.35034,-0.56686 2.97658,-1.70563 5.83609,-2.53058 4.59698,-1.32621 5.83607,-1.32911 10.6991,-0.025 3.025,0.8112 6.75162,1.48025 8.28138,1.48678 2.85493,0.0122 4.71465,2.423 3.1014,4.02043 -1.00972,0.99983 -19.52422,2.05673 -23.5596,1.3449 z m -2.14166,-42.15288 C 495.75669,247.17864 495,245.40126 495,244.25084 c 0,-1.82897 0.78494,-2.17424 6.25,-2.74921 3.4375,-0.36165 9.625,-0.28496 13.75,0.17041 l 7.5,0.82795 0,3.5 0,3.5 -12.06848,0.27932 c -10.70423,0.24775 -12.25856,0.0693 -13.75,-1.57874 z m 3.37633,-39.79159 c -5.52961,-1.73437 -6.75729,-2.86129 -5.18325,-4.7579 1.72434,-2.0777 8.80293,-2.86273 18.62615,-2.06568 7.04141,0.57134 8.76594,1.04438 9.61911,2.63856 0.79743,1.49 0.63552,2.38885 -0.69514,3.85922 -1.45431,1.60699 -3.04312,1.90083 -9.82971,1.81794 -4.45225,-0.0544 -10.09398,-0.72584 -12.53716,-1.49214 z m -0.2572,-41.14196 c -3.62652,-0.28744 -4.84391,-0.82798 -5.33261,-2.36774 -1.1702,-3.68696 1.35479,-5.20658 7.50304,-4.51556 3.0409,0.34178 8.00392,0.87017 11.02892,1.1742 8.65453,0.86981 10,1.31633 10,3.31867 0,1.51557 -1.07962,1.95133 -6.14669,2.48094 -6.09837,0.63741 -7.99588,0.62734 -17.05266,-0.0905 z"
     id="path3755"
     inkscape:connector-curvature="0" />
  <rect
     style="fill:#000000;fill-rule:evenodd;stroke:#000000;stroke-width:1px;stroke-linecap:butt;stroke-linejoin:miter;stroke-opacity:1"
     id="rect3750"
     width="29.830509"
     height="8.6779661"
     x="495.55933"
     y="159.45763" />
  <rect
     style="fill:none;fill-rule:evenodd;stroke:#000000;stroke-width:1px;stroke-linecap:butt;stroke-linejoin:miter;stroke-opacity:1"
     id="rect3754"
     width="98.179977"
     height="434.13959"
     x="509.60974"
     y="132.70988" />
  <rect
     style="fill:#000000;fill-rule:evenodd;stroke:#000000;stroke-width:1px;stroke-linecap:butt;stroke-linejoin:miter;stroke-opacity:1"
     id="rect3750-1"
     width="29.830509"
     height="8.6779661"
     x="495.08136"
     y="201.1026" />
</svg>
