<?xml version="1.0" encoding="UTF-8" standalone="no"?>
<svg
   xmlns:dc="http://purl.org/dc/elements/1.1/"
   xmlns:cc="http://creativecommons.org/ns#"
   xmlns:rdf="http://www.w3.org/1999/02/22-rdf-syntax-ns#"
   xmlns:svg="http://www.w3.org/2000/svg"
   xmlns="http://www.w3.org/2000/svg"
   viewBox="0 0 938.58372 1753.6687"
   height="1753.6687"
   width="938.58374"
   xml:space="preserve"
   version="1.1"
   id="svg2"><metadata
     id="metadata8"><rdf:RDF><cc:Work
         rdf:about=""><dc:format>image/svg+xml</dc:format><dc:type
           rdf:resource="http://purl.org/dc/dcmitype/StillImage" /><dc:title></dc:title></cc:Work></rdf:RDF></metadata><defs
     id="defs6"><clipPath
       id="clipPath18"
       clipPathUnits="userSpaceOnUse"><path
         id="path20"
         d="m 0,1700.787 1700.787,0 L 1700.787,0 0,0 0,1700.787 Z" /></clipPath></defs><g
     transform="matrix(1.25,0,0,-1.25,-683.66295,1991.5697)"
     id="g10"><g
       id="g14"><g
         clip-path="url(#clipPath18)"
         id="g16"><g
           transform="translate(726.49236,613.52572)"
           id="g2122"><path
             id="path2124"
             style="fill:#ffffff;fill-opacity:1;fill-rule:evenodd;stroke:#2b2e2d;stroke-width:1"
             d="m 0,0 c -101.743,-16.004 -179.562,-104.06 -179.562,-210.3 0,-117.584 95.322,-212.905 212.906,-212.905 70.828,0 133.578,34.586 172.283,87.79 89.041,122.397 -13.173,200.424 71.75,322.147 72.882,104.465 164.302,60.833 243.109,153.48 31.896,37.495 50.819,85.961 50.819,138.051 0,80.848 -45.067,151.165 -111.449,187.211 -75.157,40.813 -128.882,20.605 -188.051,115.472 -74.898,120.087 23.647,194.344 -69.604,315.574 -38.924,50.601 -100.082,83.21 -168.856,83.21 -117.585,0 -212.906,-95.32 -212.906,-212.905 0,-105.704 77.176,-192.569 178.023,-210.06 C 187.909,523.906 199.558,62.266 0,0" /></g></g></g></g></svg>
