<?xml version="1.0"?><svg width="640" height="480" xmlns="http://www.w3.org/2000/svg">
 <title>CrossHair</title>
 <metadata id="metadata2379">image/svg+xml</metadata>
 <g display="inline">
  <title>Layer 1</title>
  <g id="layer1">
   <g id="g2404">
    <path fill="none" stroke="#ff0000" stroke-width="22" stroke-linecap="square" stroke-linejoin="round" stroke-miterlimit="4" stroke-dashoffset="0" id="path2160" d="m367.639954,189.543106a180.596848,180.596848 0 1 1-361.193694,0a180.596848,180.596848 0 1 1361.193694,0z"/>
    <path fill="none" fill-rule="evenodd" stroke="#ff0000" stroke-width="9.391036" stroke-miterlimit="4" d="m6.44626,189.543106l361.193694,0" id="path3134"/>
    <path fill="none" fill-rule="evenodd" stroke="#ff0000" stroke-width="21.671621" id="path5074" d="m9.33581,189.543106l32.28071,0"/>
    <path fill="none" fill-rule="evenodd" stroke="#ff0000" stroke-width="21.671621" d="m332.469727,189.543106l32.280701,0" id="path6045"/>
    <path fill="none" fill-rule="evenodd" stroke="#ff0000" stroke-width="9.391036" d="m64.094131,200.378922l0,-21.671631" id="path6099"/>
    <path fill="none" fill-rule="evenodd" stroke="#ff0000" stroke-width="9.391036" id="path6101" d="m105.077118,200.378922l0,-21.671631"/>
    <path fill="none" fill-rule="evenodd" stroke="#ff0000" stroke-width="9.391036" d="m146.060135,200.378922l0,-21.671631" id="path6103"/>
    <path fill="none" fill-rule="evenodd" stroke="#ff0000" stroke-width="9.391036" id="path6105" d="m228.026138,200.378922l0,-21.671631"/>
    <path fill="none" fill-rule="evenodd" stroke="#ff0000" stroke-width="9.391036" d="m269.009094,200.378922l0,-21.671631" id="path6107"/>
    <path fill="none" fill-rule="evenodd" stroke="#ff0000" stroke-width="9.391036" id="path6109" d="m309.992126,200.378922l0,-21.671631"/>
    <path fill="none" fill-rule="evenodd" stroke="#ff0000" stroke-width="9.391036" d="m187.043137,200.378922l0,-21.671631" id="path6116"/>
    <path fill="none" fill-rule="evenodd" stroke="#ff0000" stroke-width="9.391036" stroke-miterlimit="4" id="path6292" d="m187.043106,8.94626l0,361.193693"/>
    <path fill="none" fill-rule="evenodd" stroke="#ff0000" stroke-width="21.671621" d="m187.043106,11.8358l0,32.280701" id="path6294"/>
    <path fill="none" fill-rule="evenodd" stroke="#ff0000" stroke-width="21.671621" id="path6296" d="m187.043106,334.969727l0,32.28064"/>
    <path fill="none" fill-rule="evenodd" stroke="#ff0000" stroke-width="9.391036" id="path6300" d="m176.207321,66.594124l21.6716,0"/>
    <path fill="none" fill-rule="evenodd" stroke="#ff0000" stroke-width="9.391036" d="m176.207321,107.577103l21.6716,0" id="path6302"/>
    <path fill="none" fill-rule="evenodd" stroke="#ff0000" stroke-width="9.391036" id="path6304" d="m176.207321,148.560104l21.6716,0"/>
    <path fill="none" fill-rule="evenodd" stroke="#ff0000" stroke-width="9.391036" d="m176.207321,230.526138l21.6716,0" id="path6306"/>
    <path fill="none" fill-rule="evenodd" stroke="#ff0000" stroke-width="9.391036" id="path6308" d="m176.207321,271.509094l21.6716,0"/>
    <path fill="none" fill-rule="evenodd" stroke="#ff0000" stroke-width="9.391036" d="m176.207321,312.492065l21.6716,0" id="path6310"/>
    <path fill="none" fill-rule="evenodd" stroke="#ff0000" stroke-width="9.391036" id="path6312" d="m176.207321,189.543106l21.6716,0"/>
   </g>
  </g>
  <rect transform="rotate(90.00019836425781 188.54304504394528,-28.456909179687496) " id="svg_1" height="16" width="31" y="-36.456909" x="173.043041" stroke-width="5" stroke="#ff0000" fill="#000000"/>
  <rect id="svg_4" height="16" width="31" y="181.043091" x="-45.456959" stroke-width="5" stroke="#ff0000" fill="#000000"/>
  <rect transform="rotate(-90.00019836425781 187.5430450439453,405.5430908203125) " id="svg_5" height="16" width="31" y="397.543091" x="172.043041" stroke-width="5" stroke="#ff0000" fill="#000000"/>
  <rect id="svg_6" height="16" width="31" y="181.543091" x="389.043041" stroke-width="5" stroke="#ff0000" fill="#000000"/>
  <rect id="svg_7" height="28" width="30" y="175.204947" x="173.580263" stroke-width="5" stroke="#ffffff" fill="#ffffff"/>
  <rect id="svg_10" height="17.499999" width="44" y="180.705349" x="-3.419571" stroke-width="5" stroke="#ffffff" fill="#ffffff"/>
  <rect transform="rotate(90 187.08200073242185,357.45700073242193) " id="svg_11" height="17.499999" width="44" y="348.705349" x="165.080429" stroke-width="5" stroke="#ffffff" fill="#ffffff"/>
  <rect id="svg_13" height="17.499999" width="44" y="180.705349" x="334.580429" stroke-width="5" stroke="#ffffff" fill="#ffffff"/>
  <rect id="svg_14" transform="rotate(90 187.08200073242188,20.457000732421893) " height="17.499999" width="44" y="11.705349" x="165.080429" stroke-width="5" stroke="#ffffff" fill="#ffffff"/>
  <circle id="svg_16" r="4.923828" cy="188.497116" cx="187.622101" stroke-width="5" stroke="#000000" fill="#000000"/>
 </g>
</svg>